<svg width="133" height="144" viewBox="0 0 133 144" fill="none" xmlns="http://www.w3.org/2000/svg">
<path d="M77.5938 95.082C77.526 95.7591 77.2891 96.2839 76.8828 96.6562C76.4766 97.0625 75.9518 97.2656 75.3086 97.2656C74.9701 97.2656 74.6484 97.2148 74.3438 97.1133C73.7005 97.6211 72.9388 98.0104 72.0586 98.2812C71.1784 98.5521 70.349 98.8229 69.5703 99.0938C68.6224 99.0599 67.6914 98.9753 66.7773 98.8398C65.8633 98.7044 64.9154 98.6706 63.9336 98.7383C63.5951 98.5013 63.2396 98.349 62.8672 98.2812C62.4948 98.2135 62.1055 98.1628 61.6992 98.1289C61.3268 98.1289 60.9544 98.0781 60.582 97.9766C60.2435 97.875 59.9049 97.638 59.5664 97.2656H57.0273C56.7904 97.2656 56.4349 97.1471 55.9609 96.9102C55.5208 96.707 55.013 96.487 54.4375 96.25C53.8958 96.013 53.3034 95.793 52.6602 95.5898C52.0508 95.3867 51.4753 95.2852 50.9336 95.2852H50.6289C50.2565 94.9805 49.8164 94.7435 49.3086 94.5742C48.8346 94.4388 48.3438 94.3034 47.8359 94.168C47.3281 94.0664 46.8372 93.9479 46.3633 93.8125C45.8893 93.6771 45.4831 93.4909 45.1445 93.2539C44.806 93.0169 44.4167 92.7799 43.9766 92.543C43.5365 92.2721 43.0794 92.1536 42.6055 92.1875C41.9622 91.8151 41.2852 91.4935 40.5742 91.2227C39.8971 90.9518 39.2031 90.6979 38.4922 90.4609L36.4102 89.6992C35.7331 89.4284 35.056 89.1068 34.3789 88.7344C34.2773 88.7682 34.1589 88.7682 34.0234 88.7344C33.888 88.7005 33.7695 88.6836 33.668 88.6836C33.4648 88.6836 33.3464 88.7513 33.3125 88.8867C33.0755 88.6497 32.8047 88.4466 32.5 88.2773C32.2292 88.1081 31.9583 87.9049 31.6875 87.668C31.5521 87.7018 31.4167 87.7357 31.2812 87.7695C31.1797 87.7695 31.0443 87.7695 30.875 87.7695C30.5703 87.7695 30.2656 87.7357 29.9609 87.668C29.6901 87.6003 29.4193 87.5156 29.1484 87.4141C28.8438 88.0911 28.6406 88.8529 28.5391 89.6992C28.4375 90.5456 28.3529 91.4258 28.2852 92.3398C28.2513 93.2201 28.2005 94.1003 28.1328 94.9805C28.0651 95.8945 27.9128 96.724 27.6758 97.4688C27.7435 97.7396 27.7773 98.0104 27.7773 98.2812V99.1445C27.7773 99.7201 27.862 100.177 28.0312 100.516C27.9635 100.82 27.8958 101.108 27.8281 101.379C27.7943 101.65 27.7435 101.921 27.6758 102.191C27.7096 102.564 27.7266 102.902 27.7266 103.207C27.7604 103.546 27.7773 103.901 27.7773 104.273V105.137C27.7773 105.441 27.7435 105.746 27.6758 106.051C27.3372 106.254 26.9987 106.44 26.6602 106.609C26.3216 106.812 25.9831 107.049 25.6445 107.32C25.4076 106.88 25.0013 106.626 24.4258 106.559C24.2904 106.728 24.1888 106.948 24.1211 107.219C24.0872 107.523 23.9349 107.676 23.6641 107.676C23.1901 107.303 22.8008 106.999 22.4961 106.762C22.1914 106.525 21.8529 106.169 21.4805 105.695C21.4466 105.628 21.4297 105.543 21.4297 105.441C21.4297 105.272 21.4635 105.12 21.5312 104.984C21.599 104.849 21.6328 104.714 21.6328 104.578C21.6328 104.172 21.582 103.816 21.4805 103.512C21.4128 103.072 21.362 102.632 21.3281 102.191C21.2943 101.785 21.2773 101.379 21.2773 100.973C21.2773 100.397 21.3112 99.8385 21.3789 99.2969C21.4805 98.7552 21.6497 98.1966 21.8867 97.6211C22.2591 96.6393 22.513 95.6068 22.6484 94.5234C22.8177 93.4401 22.9362 92.3568 23.0039 91.2734C23.0716 90.1562 23.1055 89.0391 23.1055 87.9219C23.1393 86.8047 23.207 85.7383 23.3086 84.7227C23.0716 84.181 22.7839 83.7578 22.4453 83.4531C22.1406 83.1146 21.9883 82.5898 21.9883 81.8789C21.9883 81.2357 22.1914 80.7448 22.5977 80.4062C23.0039 80.0339 23.3594 79.5938 23.6641 79.0859C23.5964 78.8828 23.6471 78.7474 23.8164 78.6797L24.4258 73.3477C24.4596 72.9753 24.5104 72.569 24.5781 72.1289C24.6797 71.6888 24.7474 71.2826 24.7812 70.9102C24.849 70.1315 24.8828 69.3698 24.8828 68.625C24.8828 67.8802 24.9167 67.1354 24.9844 66.3906C25.1536 64.7318 25.306 63.0898 25.4414 61.4648C25.6107 59.8398 25.6953 58.2148 25.6953 56.5898C25.6953 55.8112 25.6615 55.0326 25.5938 54.2539C25.5599 53.4753 25.4583 52.6966 25.2891 51.918C24.7135 52.0872 24.0703 52.2734 23.3594 52.4766C22.6823 52.6458 22.1068 52.9505 21.6328 53.3906H21.2266C20.3464 53.3906 19.5169 53.5599 18.7383 53.8984C17.9935 54.237 17.2318 54.5586 16.4531 54.8633C16.1146 55.0326 15.776 55.151 15.4375 55.2188C15.099 55.2526 14.7435 55.3203 14.3711 55.4219C14.2018 55.4557 14.0156 55.5573 13.8125 55.7266C13.6094 55.8958 13.4232 56.0143 13.2539 56.082L12.3906 56.2852C12.1536 56.3529 12.0521 56.5052 12.0859 56.7422C12.1198 56.9792 12.0352 57.1315 11.832 57.1992C11.6628 57.3685 11.4258 57.4531 11.1211 57.4531C10.8164 57.4193 10.5794 57.4023 10.4102 57.4023H10.207C9.36068 58.0117 8.54818 58.5365 7.76953 58.9766C6.95703 59.3828 6.00911 59.6536 4.92578 59.7891L3.80859 60.5C3.4362 60.737 3.01302 60.8555 2.53906 60.8555C2.16667 60.8555 1.86198 60.7878 1.625 60.6523C1.35417 60.2461 1.15104 59.7891 1.01562 59.2812C0.846354 58.7734 0.575521 58.3333 0.203125 57.9609C0.372396 57.7917 0.490885 57.5716 0.558594 57.3008C0.592448 56.9961 0.643229 56.7253 0.710938 56.4883C1.72656 56.0482 2.75911 55.625 3.80859 55.2188C4.82422 54.8125 5.80599 54.3216 6.75391 53.7461C6.85547 53.7799 7.00781 53.7969 7.21094 53.7969C7.54948 53.7969 7.85417 53.7461 8.125 53.6445C8.39583 53.543 8.66667 53.4245 8.9375 53.2891C9.20833 53.1536 9.47917 53.0352 9.75 52.9336C10.0208 52.832 10.3424 52.7982 10.7148 52.832C11.8659 52.1888 13.0846 51.6641 14.3711 51.2578C15.6576 50.8516 16.8763 50.293 18.0273 49.582C18.1966 49.582 18.332 49.6159 18.4336 49.6836C18.569 49.7513 18.7044 49.7852 18.8398 49.7852C18.9753 49.7852 19.0599 49.7682 19.0938 49.7344C19.2969 49.4635 19.5677 49.2773 19.9062 49.1758C20.2448 49.0404 20.5833 48.9388 20.9219 48.8711C21.2943 48.7695 21.6328 48.651 21.9375 48.5156C22.276 48.3464 22.4961 48.0924 22.5977 47.7539C22.7669 47.8893 23.0208 47.957 23.3594 47.957C23.9349 47.957 24.4596 47.8385 24.9336 47.6016C25.4414 47.3646 25.9831 47.2461 26.5586 47.2461C26.694 47.2461 26.8125 47.2799 26.9141 47.3477C27.0495 47.3815 27.1849 47.3984 27.3203 47.3984C27.5911 47.3984 27.7266 47.3138 27.7266 47.1445C27.7604 46.9753 27.862 46.8229 28.0312 46.6875C30.0964 46.3151 32.1445 45.9766 34.1758 45.6719C36.2409 45.3672 38.3229 45.2148 40.4219 45.2148C40.7266 45.0117 41.0651 44.9102 41.4375 44.9102C41.8099 44.9102 42.1484 45.0117 42.4531 45.2148C43.0286 45.1471 43.6042 45.0964 44.1797 45.0625C44.7552 45.0286 45.3307 45.0117 45.9062 45.0117C47.2266 45.0117 48.5807 45.0964 49.9688 45.2656C51.3568 45.4349 52.7279 45.7057 54.082 46.0781C55.4701 46.4167 56.7904 46.8906 58.043 47.5C59.2956 48.0755 60.4635 48.7695 61.5469 49.582C61.6484 49.8867 61.7839 50.1914 61.9531 50.4961C62.1224 50.8008 62.3424 51.0378 62.6133 51.207C62.6133 51.2747 62.5964 51.3255 62.5625 51.3594C62.5625 51.3932 62.5625 51.444 62.5625 51.5117C62.5625 51.8841 62.6641 52.2396 62.8672 52.5781C63.1042 52.9167 63.2227 53.3229 63.2227 53.7969C63.2227 54.2708 63.138 54.7448 62.9688 55.2188C62.8333 55.6927 62.7826 56.1667 62.8164 56.6406C62.444 57.1823 62.1224 57.6732 61.8516 58.1133C61.6146 58.5534 61.4622 59.112 61.3945 59.7891C60.7852 60.3984 60.2435 61.0755 59.7695 61.8203C59.2956 62.5312 58.8047 63.2422 58.2969 63.9531C57.8229 64.6302 57.2812 65.2565 56.6719 65.832C56.0625 66.4076 55.3346 66.8646 54.4883 67.2031C54.4544 67.5417 54.319 67.9141 54.082 68.3203H53.0156C52.9141 68.5911 52.7448 68.7943 52.5078 68.9297L51.7969 69.3359C51.5599 69.4714 51.3568 69.6406 51.1875 69.8438C51.0521 70.0469 50.9844 70.3346 50.9844 70.707C50.9167 70.6732 50.832 70.6562 50.7305 70.6562C50.3919 70.6562 49.9857 70.8255 49.5117 71.1641C49.0716 71.5026 48.7161 71.7734 48.4453 71.9766C47.8698 72.3828 47.2773 72.7552 46.668 73.0938C46.0924 73.4323 45.5846 73.9062 45.1445 74.5156C43.7904 75.0911 42.5039 75.7682 41.2852 76.5469C40.0664 77.2917 38.7461 77.8841 37.3242 78.3242C36.7826 78.8997 36.1393 79.3568 35.3945 79.6953C34.6836 80 33.9896 80.3385 33.3125 80.7109V80.8633C33.3125 81.1341 33.4141 81.4049 33.6172 81.6758C33.8203 81.9128 34.0573 82.1328 34.3281 82.3359C34.599 82.5052 34.8867 82.6237 35.1914 82.6914C35.5299 82.7591 35.8177 82.7591 36.0547 82.6914C36.7318 83.3008 37.5104 83.7917 38.3906 84.1641C39.2708 84.5365 40.1849 84.875 41.1328 85.1797C42.0807 85.4844 43.0117 85.806 43.9258 86.1445C44.8398 86.4831 45.6862 86.9062 46.4648 87.4141H47.6836C48.4622 88.0911 49.3763 88.599 50.4258 88.9375C51.5091 89.276 52.5417 89.5807 53.5234 89.8516C53.9297 90.224 54.4375 90.5117 55.0469 90.7148C55.6901 90.8841 56.2995 90.9688 56.875 90.9688H57.1797C57.3151 90.9688 57.4336 90.9518 57.5352 90.918V91.0195C57.5352 91.1888 57.5859 91.3073 57.6875 91.375C57.7891 91.4089 57.8906 91.4427 57.9922 91.4766C58.1276 91.4766 58.2461 91.5104 58.3477 91.5781C58.4831 91.612 58.5846 91.6797 58.6523 91.7812H59.1602C59.8711 91.7812 60.5482 91.9336 61.1914 92.2383C61.8346 92.5091 62.5117 92.6445 63.2227 92.6445C63.5273 92.6445 63.7643 92.6107 63.9336 92.543C64.1367 92.6107 64.2891 92.7461 64.3906 92.9492C64.4922 93.1523 64.6276 93.3216 64.7969 93.457C65.0339 93.4232 65.2539 93.3893 65.457 93.3555C65.6602 93.3555 65.8633 93.3555 66.0664 93.3555C66.8112 93.3555 67.5052 93.4401 68.1484 93.6094C68.7917 93.7786 69.4518 94.0326 70.1289 94.3711C71.2122 93.8971 72.2786 93.5078 73.3281 93.2031C74.3776 92.8984 75.4948 92.7461 76.6797 92.7461V92.8477C76.6797 93.2539 76.7812 93.6263 76.9844 93.9648C77.2214 94.3372 77.4245 94.7096 77.5938 95.082ZM58.1445 54.5586C58.1445 54.1523 58.0599 53.8307 57.8906 53.5938C57.7552 53.3568 57.569 53.1536 57.332 52.9844C57.0951 52.7812 56.8411 52.5951 56.5703 52.4258C56.3333 52.2565 56.1133 52.0365 55.9102 51.7656C55.0299 51.4948 54.1667 51.1901 53.3203 50.8516C52.474 50.513 51.6107 50.2253 50.7305 49.9883C50.2904 49.8867 49.8503 49.8021 49.4102 49.7344C48.9701 49.6328 48.5299 49.582 48.0898 49.582H46.9727C46.7695 49.5482 46.5495 49.5143 46.3125 49.4805C46.1094 49.4128 45.9062 49.362 45.7031 49.3281C45.2292 49.2604 44.7552 49.2096 44.2812 49.1758C43.8411 49.1419 43.3841 49.125 42.9102 49.125C42.0299 49.125 41.1497 49.1589 40.2695 49.2266L37.6289 49.4297C37.2565 49.4635 36.8672 49.4805 36.4609 49.4805C36.0547 49.4805 35.6823 49.5143 35.3438 49.582C35.1745 49.6159 34.9375 49.7005 34.6328 49.8359C34.3281 49.9375 34.0065 50.056 33.668 50.1914C33.3294 50.293 32.9909 50.4115 32.6523 50.5469C32.3477 50.6823 32.0768 50.7839 31.8398 50.8516C31.8737 51.0885 31.8906 51.3255 31.8906 51.5625V52.2227C31.8906 52.7305 31.8737 53.2383 31.8398 53.7461C31.806 54.2539 31.7383 54.7617 31.6367 55.2695C31.6029 55.4727 31.5521 55.6758 31.4844 55.8789C31.4167 56.082 31.3659 56.2852 31.332 56.4883C31.2643 56.793 31.2305 57.1315 31.2305 57.5039V58.4688C31.1628 59.2474 31.112 60.0091 31.0781 60.7539C31.0443 61.4987 30.9935 62.2604 30.9258 63.0391C30.7227 65.2734 30.5026 67.4909 30.2656 69.6914C30.0625 71.8919 29.9271 74.1094 29.8594 76.3438C30.9766 76.1068 32.043 75.7513 33.0586 75.2773C34.0742 74.8034 35.0729 74.2956 36.0547 73.7539C37.0365 73.1784 38.0182 72.6198 39 72.0781C39.9818 71.5365 41.0143 71.0794 42.0977 70.707C42.3685 70.3346 42.6901 70.0299 43.0625 69.793C43.4688 69.556 43.8073 69.2513 44.0781 68.8789C44.4167 68.8789 44.6706 68.8112 44.8398 68.6758C45.0091 68.5065 45.2292 68.388 45.5 68.3203C47.125 66.8984 48.7839 65.5612 50.4766 64.3086C52.1693 63.056 53.7943 61.7188 55.3516 60.2969C55.487 59.8229 55.707 59.3659 56.0117 58.9258C56.3503 58.4518 56.6719 57.9779 56.9766 57.5039C57.2812 57.0299 57.5521 56.556 57.7891 56.082C58.026 55.6081 58.1445 55.1003 58.1445 54.5586ZM132.184 104.375C132.184 104.747 132.099 105.103 131.93 105.441C131.253 105.814 130.542 106.068 129.797 106.203C129.086 106.372 128.375 106.457 127.664 106.457C127.326 106.457 126.953 106.44 126.547 106.406C126.174 106.406 125.836 106.372 125.531 106.305C125.43 106.271 125.311 106.203 125.176 106.102C125.04 106 124.905 105.949 124.77 105.949C124.431 105.949 124.109 106 123.805 106.102C123.5 106.237 123.178 106.305 122.84 106.305C122.671 106.305 122.501 106.254 122.332 106.152C122.197 106.051 122.044 105.983 121.875 105.949C121.638 105.882 121.401 105.865 121.164 105.898C120.927 105.932 120.673 105.949 120.402 105.949C120.03 105.949 119.691 105.898 119.387 105.797C119.116 105.695 118.862 105.509 118.625 105.238C117.779 105.137 116.949 104.967 116.137 104.73C115.324 104.527 114.512 104.29 113.699 104.02C112.887 103.783 112.074 103.546 111.262 103.309C110.449 103.105 109.62 102.97 108.773 102.902C108.57 102.665 108.333 102.479 108.062 102.344C107.792 102.242 107.589 102.056 107.453 101.785C107.284 101.785 107.165 101.802 107.098 101.836C107.03 101.904 106.911 101.938 106.742 101.938C106.167 101.464 105.54 101.057 104.863 100.719C104.22 100.38 103.543 100.059 102.832 99.7539C102.155 99.4492 101.478 99.1276 100.801 98.7891C100.158 98.4844 99.5482 98.0781 98.9727 97.5703H98.7188C98.4479 97.6042 98.2109 97.5365 98.0078 97.3672C97.8385 97.2318 97.6185 97.1641 97.3477 97.1641C97.1784 97.1641 97.043 97.181 96.9414 97.2148C96.8398 96.944 96.6875 96.724 96.4844 96.5547C96.2812 96.3854 96.0612 96.2161 95.8242 96.0469C95.6211 95.9115 95.418 95.7591 95.2148 95.5898C95.0117 95.4544 94.8594 95.2682 94.7578 95.0312C93.9115 94.7266 93.082 94.3542 92.2695 93.9141C91.4909 93.5078 90.7969 92.9661 90.1875 92.2891C89.5104 92.2214 88.9518 92.0182 88.5117 91.6797C88.0716 91.3073 87.6654 90.8503 87.293 90.3086C86.4805 90.0378 85.7357 89.6823 85.0586 89.2422C84.3815 88.8021 83.7044 88.3451 83.0273 87.8711C82.3841 87.3971 81.6901 86.974 80.9453 86.6016C80.2344 86.1953 79.4219 85.9076 78.5078 85.7383C78.474 85.5013 78.3724 85.332 78.2031 85.2305C78.0339 85.0951 77.8307 84.9935 77.5938 84.9258C77.3906 84.8242 77.1875 84.7396 76.9844 84.6719C76.7812 84.6042 76.6289 84.4688 76.5273 84.2656C76.4258 84.2656 76.3242 84.2656 76.2227 84.2656C76.1211 84.2318 76.0195 84.2148 75.918 84.2148C75.8164 84.2148 75.6979 84.2318 75.5625 84.2656C75.4609 84.2656 75.3594 84.2656 75.2578 84.2656L75.3086 84.1133C75.3086 83.9779 75.2578 83.8932 75.1562 83.8594C75.0885 83.8255 74.987 83.7917 74.8516 83.7578C74.7161 83.724 74.5977 83.6732 74.4961 83.6055C74.3945 83.5378 74.3438 83.3854 74.3438 83.1484H74.1914C73.819 83.1484 73.4805 83.0807 73.1758 82.9453C72.8711 82.8099 72.5326 82.7083 72.1602 82.6406C72.0924 83.013 72.0586 83.3685 72.0586 83.707V84.6211C72.0586 86.1445 72.2279 87.7526 72.5664 89.4453C72.9049 91.1042 73.4297 92.5938 74.1406 93.9141C74.8516 94.1849 75.4609 94.5404 75.9688 94.9805C76.4766 95.4206 76.9674 95.9284 77.4414 96.5039C77.4753 97.418 77.1367 98.1797 76.4258 98.7891C75.7487 99.4323 74.9531 99.7539 74.0391 99.7539C73.5312 99.7539 73.0573 99.6185 72.6172 99.3477C72.2109 99.1107 71.8724 98.7552 71.6016 98.2812C71.3984 98.2812 71.2122 98.3151 71.043 98.3828C70.8737 98.4844 70.6706 98.5352 70.4336 98.5352C70.332 98.5352 70.2305 98.5182 70.1289 98.4844C69.7904 97.9089 69.4518 97.401 69.1133 96.9609C68.8086 96.5208 68.6055 95.9284 68.5039 95.1836C68.1315 95.0143 67.8945 94.7096 67.793 94.2695C67.7253 93.8294 67.5391 93.474 67.2344 93.2031C67.099 91.6797 66.9128 90.1562 66.6758 88.6328C66.4727 87.1094 66.3711 85.5859 66.3711 84.0625C66.3711 83.724 66.388 83.3854 66.4219 83.0469C66.4557 82.6745 66.4896 82.3021 66.5234 81.9297C66.4557 81.7604 66.3542 81.6081 66.2188 81.4727C66.1172 81.3034 66.0326 81.1341 65.9648 80.9648C65.2878 81.1341 64.5768 81.3034 63.832 81.4727C63.1211 81.6081 62.3932 81.6758 61.6484 81.6758C61.1745 81.6758 60.599 81.6081 59.9219 81.4727C59.2448 81.3034 58.7201 81.0833 58.3477 80.8125C58.0768 80.6432 57.8906 80.3385 57.7891 79.8984C57.6536 79.4245 57.5859 79.0182 57.5859 78.6797C57.5859 78.1042 57.6875 77.5286 57.8906 76.9531C58.0938 76.3438 58.3646 75.819 58.7031 75.3789C60.362 74.7018 61.9023 73.8724 63.3242 72.8906C64.7799 71.9089 66.2018 70.8424 67.5898 69.6914C67.6237 69.3529 67.6745 69.0143 67.7422 68.6758C67.8438 68.3372 67.8945 67.9818 67.8945 67.6094C67.8945 67.2031 67.793 66.8138 67.5898 66.4414C67.793 66.2383 67.8945 65.9844 67.8945 65.6797C67.8945 65.3411 67.9792 65.0365 68.1484 64.7656V64.4609C68.1484 64.3255 68.1315 64.1901 68.0977 64.0547C68.0977 63.9193 68.0469 63.7839 67.9453 63.6484C68.1823 62.3281 68.3685 61.0247 68.5039 59.7383C68.6393 58.418 68.707 57.0638 68.707 55.6758C68.707 55.5742 68.7578 55.3034 68.8594 54.8633C68.9948 54.3893 69.0794 54.0677 69.1133 53.8984C69.2487 53.1198 69.3333 52.3581 69.3672 51.6133C69.4349 50.8346 69.5195 50.056 69.6211 49.2773C69.6549 49.0065 69.7227 48.651 69.8242 48.2109C69.9258 47.7708 69.9766 47.4661 69.9766 47.2969C69.9766 47.0599 69.9258 46.9076 69.8242 46.8398C69.7565 46.7383 69.6888 46.5859 69.6211 46.3828C69.8242 45.6042 69.9258 44.8255 69.9258 44.0469C69.9596 43.2344 70.0273 42.4388 70.1289 41.6602C70.7044 41.4232 71.1615 41.1862 71.5 40.9492C71.8385 40.7122 72.3294 40.5938 72.9727 40.5938H73.0742C73.1419 41 73.2943 41.3893 73.5312 41.7617C73.7682 42.1003 74.0052 42.4557 74.2422 42.8281C74.513 43.1667 74.75 43.5052 74.9531 43.8438C75.1562 44.1484 75.2578 44.4531 75.2578 44.7578C75.2578 45.3333 75.207 45.9596 75.1055 46.6367C75.0039 47.3138 74.9193 47.9401 74.8516 48.5156C74.6823 50.0391 74.5299 51.5456 74.3945 53.0352C74.2591 54.4909 74.056 55.9805 73.7852 57.5039C73.8867 57.9779 73.9375 58.418 73.9375 58.8242C73.9375 59.4336 73.8867 60.043 73.7852 60.6523C73.6836 61.2617 73.6328 61.888 73.6328 62.5312C73.6328 62.8359 73.6497 63.1576 73.6836 63.4961C73.7513 63.8346 73.8529 64.1393 73.9883 64.4102C75.1393 64.1055 76.1719 63.4792 77.0859 62.5312C77.2214 62.3958 77.3568 62.2266 77.4922 62.0234C77.6615 61.7865 77.8307 61.6003 78 61.4648C78.3385 61.194 78.694 60.957 79.0664 60.7539C79.4727 60.5169 79.862 60.2799 80.2344 60.043C81.1146 59.4674 81.9609 58.875 82.7734 58.2656C83.6198 57.6224 84.4661 56.9961 85.3125 56.3867C87.8177 54.5586 90.2383 52.6628 92.5742 50.6992C94.944 48.7018 97.2461 46.6029 99.4805 44.4023C99.582 43.8268 99.7852 43.3698 100.09 43.0312C100.395 42.6927 100.665 42.2865 100.902 41.8125C101.546 41.5755 102.104 41.2201 102.578 40.7461C102.781 40.8138 102.984 40.8646 103.188 40.8984C103.424 40.8984 103.645 40.8984 103.848 40.8984C104.085 40.8984 104.305 40.9154 104.508 40.9492C104.745 40.9492 104.948 41 105.117 41.1016C105.151 41.6094 105.202 42.0664 105.27 42.4727C105.337 42.8789 105.54 43.2682 105.879 43.6406C105.879 43.7083 105.879 43.776 105.879 43.8438C105.913 43.9115 105.93 43.9792 105.93 44.0469C105.93 44.4193 105.828 44.724 105.625 44.9609C105.422 45.1979 105.303 45.4857 105.27 45.8242L102.629 48.4648C101.749 49.3451 100.936 50.293 100.191 51.3086C99.9206 51.3424 99.6836 51.4271 99.4805 51.5625C99.2773 51.6979 99.0742 51.8503 98.8711 52.0195C98.7018 52.1549 98.5156 52.2904 98.3125 52.4258C98.1094 52.5612 97.8893 52.6628 97.6523 52.7305C97.043 53.543 96.349 54.2878 95.5703 54.9648C94.7917 55.6081 93.9961 56.2344 93.1836 56.8438C92.3711 57.4531 91.5586 58.0794 90.7461 58.7227C89.9674 59.332 89.2396 60.0091 88.5625 60.7539C87.8516 61.0924 87.1576 61.4987 86.4805 61.9727C85.8372 62.4128 85.3125 62.9714 84.9062 63.6484H84.6523C84.4831 63.6484 84.3477 63.6992 84.2461 63.8008C84.1445 63.8685 84.0091 63.9023 83.8398 63.9023C82.0117 65.4935 80.1159 67 78.1523 68.4219C76.1888 69.8099 74.3099 71.3333 72.5156 72.9922V74.2617C73.0911 74.6003 73.7174 74.9219 74.3945 75.2266C75.0716 75.4974 75.7318 75.8021 76.375 76.1406C77.0521 76.4792 77.6784 76.8516 78.2539 77.2578C78.8633 77.6302 79.388 78.0872 79.8281 78.6289C79.8958 78.5951 79.9805 78.5781 80.082 78.5781C80.3867 78.5781 80.6237 78.6797 80.793 78.8828C80.9622 79.0521 81.25 79.1029 81.6562 79.0352C81.7917 79.5768 82.0964 79.9661 82.5703 80.2031C83.0443 80.4401 83.5182 80.6432 83.9922 80.8125C84.3984 81.2188 84.7708 81.6081 85.1094 81.9805C85.4479 82.319 85.9388 82.5391 86.582 82.6406C86.6497 82.776 86.7005 82.9284 86.7344 83.0977C86.7682 83.2669 86.8359 83.4193 86.9375 83.5547C87.5807 83.7578 88.1901 84.0456 88.7656 84.418C89.375 84.7904 89.9674 85.1797 90.543 85.5859C91.1185 85.9583 91.694 86.3307 92.2695 86.7031C92.8789 87.0417 93.5221 87.3125 94.1992 87.5156C94.3008 87.8542 94.487 88.0911 94.7578 88.2266C95.0625 88.362 95.2995 88.5651 95.4688 88.8359H96.3828C96.4844 89.0052 96.6198 89.1745 96.7891 89.3438C96.9583 89.4792 97.0768 89.6823 97.1445 89.9531C97.4154 90.0208 97.7201 90.1224 98.0586 90.2578C98.3971 90.3594 98.7018 90.4948 98.9727 90.6641C99.0742 90.7656 99.1419 90.8841 99.1758 91.0195C99.2435 91.1549 99.3451 91.2734 99.4805 91.375C99.6836 91.5443 99.9883 91.6797 100.395 91.7812C100.835 91.849 101.207 91.9674 101.512 92.1367C102.121 92.4753 102.714 92.8477 103.289 93.2539C103.865 93.694 104.474 94.1003 105.117 94.4727L107.098 95.5391C107.436 95.7083 107.741 95.8945 108.012 96.0977C108.316 96.3008 108.621 96.487 108.926 96.6562C109.535 96.9271 110.178 97.0964 110.855 97.1641C111.566 97.2656 112.21 97.4518 112.785 97.7227C112.954 97.8242 113.073 97.9427 113.141 98.0781C113.208 98.2474 113.327 98.3828 113.496 98.4844C113.767 98.6536 114.19 98.7721 114.766 98.8398C115.341 98.9076 115.815 99.026 116.188 99.1953C116.661 99.3984 117.118 99.5846 117.559 99.7539C118.033 99.957 118.507 100.194 118.98 100.465C119.996 100.533 120.995 100.651 121.977 100.82C122.992 100.99 123.991 101.159 124.973 101.328C125.954 101.497 126.936 101.65 127.918 101.785C128.934 101.921 129.949 101.971 130.965 101.938C130.965 102.005 130.999 102.039 131.066 102.039C131.168 102.073 131.253 102.09 131.32 102.09C131.557 102.462 131.76 102.835 131.93 103.207C132.099 103.579 132.184 103.969 132.184 104.375Z" fill="black"/>
</svg>
