<svg width="102" height="53" viewBox="0 0 102 53" fill="none" xmlns="http://www.w3.org/2000/svg">
<path d="M59.6875 42.6016C59.6354 43.1224 59.4531 43.526 59.1406 43.8125C58.8281 44.125 58.4245 44.2812 57.9297 44.2812C57.6693 44.2812 57.4219 44.2422 57.1875 44.1641C56.6927 44.5547 56.1068 44.8542 55.4297 45.0625C54.7526 45.2708 54.1146 45.4792 53.5156 45.6875C52.7865 45.6615 52.0703 45.5964 51.3672 45.4922C50.6641 45.388 49.9349 45.362 49.1797 45.4141C48.9193 45.2318 48.6458 45.1146 48.3594 45.0625C48.0729 45.0104 47.7734 44.9714 47.4609 44.9453C47.1745 44.9453 46.888 44.9062 46.6016 44.8281C46.3411 44.75 46.0807 44.5677 45.8203 44.2812H43.8672C43.6849 44.2812 43.4115 44.1901 43.0469 44.0078C42.7083 43.8516 42.3177 43.6823 41.875 43.5C41.4583 43.3177 41.0026 43.1484 40.5078 42.9922C40.0391 42.8359 39.5964 42.7578 39.1797 42.7578H38.9453C38.6589 42.5234 38.3203 42.3411 37.9297 42.2109C37.5651 42.1068 37.1875 42.0026 36.7969 41.8984C36.4062 41.8203 36.0286 41.7292 35.6641 41.625C35.2995 41.5208 34.987 41.3776 34.7266 41.1953C34.4661 41.013 34.1667 40.8307 33.8281 40.6484C33.4896 40.4401 33.138 40.349 32.7734 40.375C32.2786 40.0885 31.7578 39.8411 31.2109 39.6328C30.6901 39.4245 30.1562 39.2292 29.6094 39.0469L28.0078 38.4609C27.487 38.2526 26.9661 38.0052 26.4453 37.7188C26.3672 37.7448 26.276 37.7448 26.1719 37.7188C26.0677 37.6927 25.9766 37.6797 25.8984 37.6797C25.7422 37.6797 25.651 37.7318 25.625 37.8359C25.4427 37.6536 25.2344 37.4974 25 37.3672C24.7917 37.237 24.5833 37.0807 24.375 36.8984C24.2708 36.9245 24.1667 36.9505 24.0625 36.9766C23.9844 36.9766 23.8802 36.9766 23.75 36.9766C23.5156 36.9766 23.2812 36.9505 23.0469 36.8984C22.8385 36.8464 22.6302 36.7812 22.4219 36.7031C22.1875 37.224 22.0312 37.8099 21.9531 38.4609C21.875 39.112 21.8099 39.7891 21.7578 40.4922C21.7318 41.1693 21.6927 41.8464 21.6406 42.5234C21.5885 43.2266 21.4714 43.8646 21.2891 44.4375C21.3411 44.6458 21.3672 44.8542 21.3672 45.0625V45.7266C21.3672 46.1693 21.4323 46.5208 21.5625 46.7812C21.5104 47.0156 21.4583 47.237 21.4062 47.4453C21.3802 47.6536 21.3411 47.862 21.2891 48.0703C21.3151 48.3568 21.3281 48.6172 21.3281 48.8516C21.3542 49.112 21.3672 49.3854 21.3672 49.6719V50.3359C21.3672 50.5703 21.3411 50.8047 21.2891 51.0391C21.0286 51.1953 20.7682 51.3385 20.5078 51.4688C20.2474 51.625 19.987 51.8073 19.7266 52.0156C19.5443 51.6771 19.2318 51.4818 18.7891 51.4297C18.6849 51.5599 18.6068 51.7292 18.5547 51.9375C18.5286 52.1719 18.4115 52.2891 18.2031 52.2891C17.8385 52.0026 17.5391 51.7682 17.3047 51.5859C17.0703 51.4036 16.8099 51.1302 16.5234 50.7656C16.4974 50.7135 16.4844 50.6484 16.4844 50.5703C16.4844 50.4401 16.5104 50.3229 16.5625 50.2188C16.6146 50.1146 16.6406 50.0104 16.6406 49.9062C16.6406 49.5938 16.6016 49.3203 16.5234 49.0859C16.4714 48.7474 16.4323 48.4089 16.4062 48.0703C16.3802 47.7578 16.3672 47.4453 16.3672 47.1328C16.3672 46.6901 16.3932 46.2604 16.4453 45.8438C16.5234 45.4271 16.6536 44.9974 16.8359 44.5547C17.1224 43.7995 17.3177 43.0052 17.4219 42.1719C17.5521 41.3385 17.6432 40.5052 17.6953 39.6719C17.7474 38.8125 17.7734 37.9531 17.7734 37.0938C17.7995 36.2344 17.8516 35.4141 17.9297 34.6328C17.7474 34.2161 17.526 33.8906 17.2656 33.6562C17.0312 33.3958 16.9141 32.9922 16.9141 32.4453C16.9141 31.9505 17.0703 31.5729 17.3828 31.3125C17.6953 31.026 17.9688 30.6875 18.2031 30.2969C18.151 30.1406 18.1901 30.0365 18.3203 29.9844L18.7891 25.8828C18.8151 25.5964 18.8542 25.2839 18.9062 24.9453C18.9844 24.6068 19.0365 24.2943 19.0625 24.0078C19.1146 23.4089 19.1406 22.8229 19.1406 22.25C19.1406 21.6771 19.1667 21.1042 19.2188 20.5312C19.349 19.2552 19.4661 17.9922 19.5703 16.7422C19.7005 15.4922 19.7656 14.2422 19.7656 12.9922C19.7656 12.3932 19.7396 11.7943 19.6875 11.1953C19.6615 10.5964 19.5833 9.9974 19.4531 9.39844C19.0104 9.52865 18.5156 9.67188 17.9688 9.82812C17.4479 9.95833 17.0052 10.1927 16.6406 10.5312H16.3281C15.651 10.5312 15.013 10.6615 14.4141 10.9219C13.8411 11.1823 13.2552 11.4297 12.6562 11.6641C12.3958 11.7943 12.1354 11.8854 11.875 11.9375C11.6146 11.9635 11.3411 12.0156 11.0547 12.0938C10.9245 12.1198 10.7812 12.1979 10.625 12.3281C10.4688 12.4583 10.3255 12.5495 10.1953 12.6016L9.53125 12.7578C9.34896 12.8099 9.27083 12.9271 9.29688 13.1094C9.32292 13.2917 9.25781 13.4089 9.10156 13.4609C8.97135 13.5911 8.78906 13.6562 8.55469 13.6562C8.32031 13.6302 8.13802 13.6172 8.00781 13.6172H7.85156C7.20052 14.0859 6.57552 14.4896 5.97656 14.8281C5.35156 15.1406 4.6224 15.349 3.78906 15.4531L2.92969 16C2.64323 16.1823 2.31771 16.2734 1.95312 16.2734C1.66667 16.2734 1.43229 16.2214 1.25 16.1172C1.04167 15.8047 0.885417 15.4531 0.78125 15.0625C0.651042 14.6719 0.442708 14.3333 0.15625 14.0469C0.286458 13.9167 0.377604 13.7474 0.429688 13.5391C0.455729 13.3047 0.494792 13.0964 0.546875 12.9141C1.32812 12.5755 2.1224 12.25 2.92969 11.9375C3.71094 11.625 4.46615 11.2474 5.19531 10.8047C5.27344 10.8307 5.39062 10.8438 5.54688 10.8438C5.80729 10.8438 6.04167 10.8047 6.25 10.7266C6.45833 10.6484 6.66667 10.5573 6.875 10.4531C7.08333 10.349 7.29167 10.2578 7.5 10.1797C7.70833 10.1016 7.95573 10.0755 8.24219 10.1016C9.1276 9.60677 10.0651 9.20312 11.0547 8.89062C12.0443 8.57812 12.9818 8.14844 13.8672 7.60156C13.9974 7.60156 14.1016 7.6276 14.1797 7.67969C14.2839 7.73177 14.388 7.75781 14.4922 7.75781C14.5964 7.75781 14.6615 7.74479 14.6875 7.71875C14.8438 7.51042 15.0521 7.36719 15.3125 7.28906C15.5729 7.1849 15.8333 7.10677 16.0938 7.05469C16.3802 6.97656 16.6406 6.88542 16.875 6.78125C17.1354 6.65104 17.3047 6.45573 17.3828 6.19531C17.513 6.29948 17.7083 6.35156 17.9688 6.35156C18.4115 6.35156 18.8151 6.26042 19.1797 6.07812C19.5703 5.89583 19.987 5.80469 20.4297 5.80469C20.5339 5.80469 20.625 5.83073 20.7031 5.88281C20.8073 5.90885 20.9115 5.92188 21.0156 5.92188C21.224 5.92188 21.3281 5.85677 21.3281 5.72656C21.3542 5.59635 21.4323 5.47917 21.5625 5.375C23.151 5.08854 24.7266 4.82812 26.2891 4.59375C27.8776 4.35938 29.4792 4.24219 31.0938 4.24219C31.3281 4.08594 31.5885 4.00781 31.875 4.00781C32.1615 4.00781 32.4219 4.08594 32.6562 4.24219C33.099 4.1901 33.5417 4.15104 33.9844 4.125C34.4271 4.09896 34.8698 4.08594 35.3125 4.08594C36.3281 4.08594 37.3698 4.15104 38.4375 4.28125C39.5052 4.41146 40.5599 4.61979 41.6016 4.90625C42.6693 5.16667 43.6849 5.53125 44.6484 6C45.612 6.44271 46.5104 6.97656 47.3438 7.60156C47.4219 7.83594 47.526 8.07031 47.6562 8.30469C47.7865 8.53906 47.9557 8.72135 48.1641 8.85156C48.1641 8.90365 48.151 8.94271 48.125 8.96875C48.125 8.99479 48.125 9.03385 48.125 9.08594C48.125 9.3724 48.2031 9.64583 48.3594 9.90625C48.5417 10.1667 48.6328 10.4792 48.6328 10.8438C48.6328 11.2083 48.5677 11.5729 48.4375 11.9375C48.3333 12.3021 48.2943 12.6667 48.3203 13.0312C48.0339 13.4479 47.7865 13.8255 47.5781 14.1641C47.3958 14.5026 47.2786 14.9323 47.2266 15.4531C46.7578 15.9219 46.3411 16.4427 45.9766 17.0156C45.612 17.5625 45.2344 18.1094 44.8438 18.6562C44.4792 19.1771 44.0625 19.6589 43.5938 20.1016C43.125 20.5443 42.5651 20.8958 41.9141 21.1562C41.888 21.4167 41.7839 21.7031 41.6016 22.0156H40.7812C40.7031 22.224 40.5729 22.3802 40.3906 22.4844L39.8438 22.7969C39.6615 22.901 39.5052 23.0312 39.375 23.1875C39.2708 23.3438 39.2188 23.5651 39.2188 23.8516C39.1667 23.8255 39.1016 23.8125 39.0234 23.8125C38.763 23.8125 38.4505 23.9427 38.0859 24.2031C37.7474 24.4635 37.474 24.6719 37.2656 24.8281C36.8229 25.1406 36.3672 25.4271 35.8984 25.6875C35.4557 25.9479 35.0651 26.3125 34.7266 26.7812C33.6849 27.224 32.6953 27.7448 31.7578 28.3438C30.8203 28.9167 29.8047 29.3724 28.7109 29.7109C28.2943 30.1536 27.7995 30.5052 27.2266 30.7656C26.6797 31 26.1458 31.2604 25.625 31.5469V31.6641C25.625 31.8724 25.7031 32.0807 25.8594 32.2891C26.0156 32.4714 26.1979 32.6406 26.4062 32.7969C26.6146 32.9271 26.8359 33.0182 27.0703 33.0703C27.3307 33.1224 27.5521 33.1224 27.7344 33.0703C28.2552 33.5391 28.8542 33.9167 29.5312 34.2031C30.2083 34.4896 30.9115 34.75 31.6406 34.9844C32.3698 35.2188 33.0859 35.4661 33.7891 35.7266C34.4922 35.987 35.1432 36.3125 35.7422 36.7031H36.6797C37.2786 37.224 37.9818 37.6146 38.7891 37.875C39.6224 38.1354 40.4167 38.3698 41.1719 38.5781C41.4844 38.8646 41.875 39.0859 42.3438 39.2422C42.8385 39.3724 43.3073 39.4375 43.75 39.4375H43.9844C44.0885 39.4375 44.1797 39.4245 44.2578 39.3984V39.4766C44.2578 39.6068 44.2969 39.6979 44.375 39.75C44.4531 39.776 44.5312 39.8021 44.6094 39.8281C44.7135 39.8281 44.8047 39.8542 44.8828 39.9062C44.987 39.9323 45.0651 39.9844 45.1172 40.0625H45.5078C46.0547 40.0625 46.5755 40.1797 47.0703 40.4141C47.5651 40.6224 48.0859 40.7266 48.6328 40.7266C48.8672 40.7266 49.0495 40.7005 49.1797 40.6484C49.3359 40.7005 49.4531 40.8047 49.5312 40.9609C49.6094 41.1172 49.7135 41.2474 49.8438 41.3516C50.026 41.3255 50.1953 41.2995 50.3516 41.2734C50.5078 41.2734 50.6641 41.2734 50.8203 41.2734C51.3932 41.2734 51.9271 41.3385 52.4219 41.4688C52.9167 41.599 53.4245 41.7943 53.9453 42.0547C54.7786 41.6901 55.599 41.3906 56.4062 41.1562C57.2135 40.9219 58.0729 40.8047 58.9844 40.8047V40.8828C58.9844 41.1953 59.0625 41.4818 59.2188 41.7422C59.401 42.0286 59.5573 42.3151 59.6875 42.6016ZM44.7266 11.4297C44.7266 11.1172 44.6615 10.8698 44.5312 10.6875C44.4271 10.5052 44.2839 10.349 44.1016 10.2188C43.9193 10.0625 43.724 9.91927 43.5156 9.78906C43.3333 9.65885 43.1641 9.48958 43.0078 9.28125C42.3307 9.07292 41.6667 8.83854 41.0156 8.57812C40.3646 8.31771 39.7005 8.09635 39.0234 7.91406C38.6849 7.83594 38.3464 7.77083 38.0078 7.71875C37.6693 7.64062 37.3307 7.60156 36.9922 7.60156H36.1328C35.9766 7.57552 35.8073 7.54948 35.625 7.52344C35.4688 7.47135 35.3125 7.43229 35.1562 7.40625C34.7917 7.35417 34.4271 7.3151 34.0625 7.28906C33.724 7.26302 33.3724 7.25 33.0078 7.25C32.3307 7.25 31.6536 7.27604 30.9766 7.32812L28.9453 7.48438C28.6589 7.51042 28.3594 7.52344 28.0469 7.52344C27.7344 7.52344 27.4479 7.54948 27.1875 7.60156C27.0573 7.6276 26.875 7.69271 26.6406 7.79688C26.4062 7.875 26.1589 7.96615 25.8984 8.07031C25.638 8.14844 25.3776 8.23958 25.1172 8.34375C24.8828 8.44792 24.6745 8.52604 24.4922 8.57812C24.5182 8.76042 24.5312 8.94271 24.5312 9.125V9.63281C24.5312 10.0234 24.5182 10.4141 24.4922 10.8047C24.4661 11.1953 24.4141 11.5859 24.3359 11.9766C24.3099 12.1328 24.2708 12.2891 24.2188 12.4453C24.1667 12.6016 24.1276 12.7578 24.1016 12.9141C24.0495 13.1484 24.0234 13.4089 24.0234 13.6953V14.4375C23.9714 15.0365 23.9323 15.6224 23.9062 16.1953C23.8802 16.7682 23.8411 17.3542 23.7891 17.9531C23.6328 19.6719 23.4635 21.3776 23.2812 23.0703C23.125 24.763 23.0208 26.4688 22.9688 28.1875C23.8281 28.0052 24.6484 27.7318 25.4297 27.3672C26.2109 27.0026 26.9792 26.612 27.7344 26.1953C28.4896 25.7526 29.2448 25.3229 30 24.9062C30.7552 24.4896 31.5495 24.138 32.3828 23.8516C32.5911 23.5651 32.8385 23.3307 33.125 23.1484C33.4375 22.9661 33.6979 22.7318 33.9062 22.4453C34.1667 22.4453 34.362 22.3932 34.4922 22.2891C34.6224 22.1589 34.7917 22.0677 35 22.0156C36.25 20.9219 37.526 19.8932 38.8281 18.9297C40.1302 17.9661 41.3802 16.9375 42.5781 15.8438C42.6823 15.4792 42.8516 15.1276 43.0859 14.7891C43.3464 14.4245 43.5938 14.0599 43.8281 13.6953C44.0625 13.3307 44.2708 12.9661 44.4531 12.6016C44.6354 12.237 44.7266 11.8464 44.7266 11.4297ZM101.68 49.75C101.68 50.0365 101.615 50.3099 101.484 50.5703C100.964 50.8568 100.417 51.0521 99.8438 51.1562C99.2969 51.2865 98.75 51.3516 98.2031 51.3516C97.9427 51.3516 97.6562 51.3385 97.3438 51.3125C97.0573 51.3125 96.7969 51.2865 96.5625 51.2344C96.4844 51.2083 96.3932 51.1562 96.2891 51.0781C96.1849 51 96.0807 50.9609 95.9766 50.9609C95.7161 50.9609 95.4688 51 95.2344 51.0781C95 51.1823 94.7526 51.2344 94.4922 51.2344C94.362 51.2344 94.2318 51.1953 94.1016 51.1172C93.9974 51.0391 93.8802 50.987 93.75 50.9609C93.5677 50.9089 93.3854 50.8958 93.2031 50.9219C93.0208 50.9479 92.8255 50.9609 92.6172 50.9609C92.3307 50.9609 92.0703 50.9219 91.8359 50.8438C91.6276 50.7656 91.4323 50.6224 91.25 50.4141C90.599 50.3359 89.9609 50.2057 89.3359 50.0234C88.7109 49.8672 88.0859 49.6849 87.4609 49.4766C86.8359 49.2943 86.2109 49.112 85.5859 48.9297C84.9609 48.7734 84.3229 48.6693 83.6719 48.6172C83.5156 48.4349 83.3333 48.2917 83.125 48.1875C82.9167 48.1094 82.7604 47.9661 82.6562 47.7578C82.526 47.7578 82.4349 47.7708 82.3828 47.7969C82.3307 47.849 82.2396 47.875 82.1094 47.875C81.6667 47.5104 81.1849 47.1979 80.6641 46.9375C80.1693 46.6771 79.6484 46.4297 79.1016 46.1953C78.5807 45.9609 78.0599 45.7135 77.5391 45.4531C77.0443 45.2188 76.5755 44.9062 76.1328 44.5156H75.9375C75.7292 44.5417 75.5469 44.4896 75.3906 44.3594C75.2604 44.2552 75.0911 44.2031 74.8828 44.2031C74.7526 44.2031 74.6484 44.2161 74.5703 44.2422C74.4922 44.0339 74.375 43.8646 74.2188 43.7344C74.0625 43.6042 73.8932 43.474 73.7109 43.3438C73.5547 43.2396 73.3984 43.1224 73.2422 42.9922C73.0859 42.888 72.9688 42.7448 72.8906 42.5625C72.2396 42.3281 71.6016 42.0417 70.9766 41.7031C70.3776 41.3906 69.8438 40.974 69.375 40.4531C68.8542 40.401 68.4245 40.2448 68.0859 39.9844C67.7474 39.6979 67.4349 39.3464 67.1484 38.9297C66.5234 38.7214 65.9505 38.4479 65.4297 38.1094C64.9089 37.7708 64.388 37.4193 63.8672 37.0547C63.3724 36.6901 62.8385 36.3646 62.2656 36.0781C61.7188 35.7656 61.0938 35.5443 60.3906 35.4141C60.3646 35.2318 60.2865 35.1016 60.1562 35.0234C60.026 34.9193 59.8698 34.8411 59.6875 34.7891C59.5312 34.7109 59.375 34.6458 59.2188 34.5938C59.0625 34.5417 58.9453 34.4375 58.8672 34.2812C58.7891 34.2812 58.7109 34.2812 58.6328 34.2812C58.5547 34.2552 58.4766 34.2422 58.3984 34.2422C58.3203 34.2422 58.2292 34.2552 58.125 34.2812C58.0469 34.2812 57.9688 34.2812 57.8906 34.2812L57.9297 34.1641C57.9297 34.0599 57.8906 33.9948 57.8125 33.9688C57.7604 33.9427 57.6823 33.9167 57.5781 33.8906C57.474 33.8646 57.3828 33.8255 57.3047 33.7734C57.2266 33.7214 57.1875 33.6042 57.1875 33.4219H57.0703C56.7839 33.4219 56.5234 33.3698 56.2891 33.2656C56.0547 33.1615 55.7943 33.0833 55.5078 33.0312C55.4557 33.3177 55.4297 33.5911 55.4297 33.8516V34.5547C55.4297 35.7266 55.5599 36.9635 55.8203 38.2656C56.0807 39.5417 56.4844 40.6875 57.0312 41.7031C57.5781 41.9115 58.0469 42.1849 58.4375 42.5234C58.8281 42.862 59.2057 43.2526 59.5703 43.6953C59.5964 44.3984 59.3359 44.9844 58.7891 45.4531C58.2682 45.9479 57.6562 46.1953 56.9531 46.1953C56.5625 46.1953 56.1979 46.0911 55.8594 45.8828C55.5469 45.7005 55.2865 45.4271 55.0781 45.0625C54.9219 45.0625 54.7786 45.0885 54.6484 45.1406C54.5182 45.2188 54.362 45.2578 54.1797 45.2578C54.1016 45.2578 54.0234 45.2448 53.9453 45.2188C53.6849 44.776 53.4245 44.3854 53.1641 44.0469C52.9297 43.7083 52.7734 43.2526 52.6953 42.6797C52.4089 42.5495 52.2266 42.3151 52.1484 41.9766C52.0964 41.638 51.9531 41.3646 51.7188 41.1562C51.6146 39.9844 51.4714 38.8125 51.2891 37.6406C51.1328 36.4688 51.0547 35.2969 51.0547 34.125C51.0547 33.8646 51.0677 33.6042 51.0938 33.3438C51.1198 33.0573 51.1458 32.7708 51.1719 32.4844C51.1198 32.3542 51.0417 32.237 50.9375 32.1328C50.8594 32.0026 50.7943 31.8724 50.7422 31.7422C50.2214 31.8724 49.6745 32.0026 49.1016 32.1328C48.5547 32.237 47.9948 32.2891 47.4219 32.2891C47.0573 32.2891 46.6146 32.237 46.0938 32.1328C45.5729 32.0026 45.1693 31.8333 44.8828 31.625C44.6745 31.4948 44.5312 31.2604 44.4531 30.9219C44.349 30.5573 44.2969 30.2448 44.2969 29.9844C44.2969 29.5417 44.375 29.099 44.5312 28.6562C44.6875 28.1875 44.8958 27.7839 45.1562 27.4453C46.4323 26.9245 47.6172 26.2865 48.7109 25.5312C49.8307 24.776 50.9245 23.9557 51.9922 23.0703C52.0182 22.8099 52.0573 22.5495 52.1094 22.2891C52.1875 22.0286 52.2266 21.7552 52.2266 21.4688C52.2266 21.1562 52.1484 20.8568 51.9922 20.5703C52.1484 20.4141 52.2266 20.2188 52.2266 19.9844C52.2266 19.724 52.2917 19.4896 52.4219 19.2812V19.0469C52.4219 18.9427 52.4089 18.8385 52.3828 18.7344C52.3828 18.6302 52.3438 18.526 52.2656 18.4219C52.4479 17.4062 52.5911 16.4036 52.6953 15.4141C52.7995 14.3984 52.8516 13.3568 52.8516 12.2891C52.8516 12.2109 52.8906 12.0026 52.9688 11.6641C53.0729 11.2995 53.138 11.0521 53.1641 10.9219C53.2682 10.3229 53.3333 9.73698 53.3594 9.16406C53.4115 8.5651 53.4766 7.96615 53.5547 7.36719C53.5807 7.15885 53.6328 6.88542 53.7109 6.54688C53.7891 6.20833 53.8281 5.97396 53.8281 5.84375C53.8281 5.66146 53.7891 5.54427 53.7109 5.49219C53.6589 5.41406 53.6068 5.29688 53.5547 5.14062C53.7109 4.54167 53.7891 3.94271 53.7891 3.34375C53.8151 2.71875 53.8672 2.10677 53.9453 1.50781C54.388 1.32552 54.7396 1.14323 55 0.960938C55.2604 0.778646 55.638 0.6875 56.1328 0.6875H56.2109C56.263 1 56.3802 1.29948 56.5625 1.58594C56.7448 1.84635 56.9271 2.11979 57.1094 2.40625C57.3177 2.66667 57.5 2.92708 57.6562 3.1875C57.8125 3.42188 57.8906 3.65625 57.8906 3.89062C57.8906 4.33333 57.8516 4.8151 57.7734 5.33594C57.6953 5.85677 57.6302 6.33854 57.5781 6.78125C57.4479 7.95312 57.3307 9.11198 57.2266 10.2578C57.1224 11.3776 56.9661 12.5234 56.7578 13.6953C56.8359 14.0599 56.875 14.3984 56.875 14.7109C56.875 15.1797 56.8359 15.6484 56.7578 16.1172C56.6797 16.5859 56.6406 17.0677 56.6406 17.5625C56.6406 17.7969 56.6536 18.0443 56.6797 18.3047C56.7318 18.5651 56.8099 18.7995 56.9141 19.0078C57.7995 18.7734 58.5938 18.2917 59.2969 17.5625C59.401 17.4583 59.5052 17.3281 59.6094 17.1719C59.7396 16.9896 59.8698 16.8464 60 16.7422C60.2604 16.5339 60.5339 16.3516 60.8203 16.1953C61.1328 16.013 61.4323 15.8307 61.7188 15.6484C62.3958 15.2057 63.0469 14.75 63.6719 14.2812C64.3229 13.7865 64.974 13.3047 65.625 12.8359C67.5521 11.4297 69.4141 9.97135 71.2109 8.46094C73.0339 6.92448 74.8047 5.3099 76.5234 3.61719C76.6016 3.17448 76.7578 2.82292 76.9922 2.5625C77.2266 2.30208 77.4349 1.98958 77.6172 1.625C78.112 1.44271 78.5417 1.16927 78.9062 0.804688C79.0625 0.856771 79.2188 0.895833 79.375 0.921875C79.5573 0.921875 79.7266 0.921875 79.8828 0.921875C80.0651 0.921875 80.2344 0.934896 80.3906 0.960938C80.5729 0.960938 80.7292 1 80.8594 1.07812C80.8854 1.46875 80.9245 1.82031 80.9766 2.13281C81.0286 2.44531 81.1849 2.74479 81.4453 3.03125C81.4453 3.08333 81.4453 3.13542 81.4453 3.1875C81.4714 3.23958 81.4844 3.29167 81.4844 3.34375C81.4844 3.63021 81.4062 3.86458 81.25 4.04688C81.0938 4.22917 81.0026 4.45052 80.9766 4.71094L78.9453 6.74219C78.2682 7.41927 77.6432 8.14844 77.0703 8.92969C76.862 8.95573 76.6797 9.02083 76.5234 9.125C76.3672 9.22917 76.2109 9.34635 76.0547 9.47656C75.9245 9.58073 75.7812 9.6849 75.625 9.78906C75.4688 9.89323 75.2995 9.97135 75.1172 10.0234C74.6484 10.6484 74.1146 11.2214 73.5156 11.7422C72.9167 12.237 72.3047 12.7188 71.6797 13.1875C71.0547 13.6562 70.4297 14.138 69.8047 14.6328C69.2057 15.1016 68.6458 15.6224 68.125 16.1953C67.5781 16.4557 67.0443 16.7682 66.5234 17.1328C66.0286 17.4714 65.625 17.901 65.3125 18.4219H65.1172C64.987 18.4219 64.8828 18.4609 64.8047 18.5391C64.7266 18.5911 64.6224 18.6172 64.4922 18.6172C63.0859 19.8411 61.6276 21 60.1172 22.0938C58.6068 23.1615 57.1615 24.3333 55.7812 25.6094V26.5859C56.224 26.8464 56.7057 27.0938 57.2266 27.3281C57.7474 27.5365 58.2552 27.7708 58.75 28.0312C59.2708 28.2917 59.7526 28.5781 60.1953 28.8906C60.6641 29.1771 61.0677 29.5286 61.4062 29.9453C61.4583 29.9193 61.5234 29.9062 61.6016 29.9062C61.8359 29.9062 62.0182 29.9844 62.1484 30.1406C62.2786 30.2708 62.5 30.3099 62.8125 30.2578C62.9167 30.6745 63.151 30.974 63.5156 31.1562C63.8802 31.3385 64.2448 31.4948 64.6094 31.625C64.9219 31.9375 65.2083 32.237 65.4688 32.5234C65.7292 32.7839 66.1068 32.9531 66.6016 33.0312C66.6536 33.1354 66.6927 33.2526 66.7188 33.3828C66.7448 33.513 66.7969 33.6302 66.875 33.7344C67.3698 33.8906 67.8385 34.112 68.2812 34.3984C68.75 34.6849 69.2057 34.9844 69.6484 35.2969C70.0911 35.5833 70.5339 35.8698 70.9766 36.1562C71.4453 36.4167 71.9401 36.625 72.4609 36.7812C72.5391 37.0417 72.6823 37.224 72.8906 37.3281C73.125 37.4323 73.3073 37.5885 73.4375 37.7969H74.1406C74.2188 37.9271 74.3229 38.0573 74.4531 38.1875C74.5833 38.2917 74.6745 38.4479 74.7266 38.6562C74.9349 38.7083 75.1693 38.7865 75.4297 38.8906C75.6901 38.9688 75.9245 39.0729 76.1328 39.2031C76.2109 39.2812 76.263 39.3724 76.2891 39.4766C76.3411 39.5807 76.4193 39.6719 76.5234 39.75C76.6797 39.8802 76.9141 39.9844 77.2266 40.0625C77.5651 40.1146 77.8516 40.2057 78.0859 40.3359C78.5547 40.5964 79.0104 40.8828 79.4531 41.1953C79.8958 41.5339 80.3646 41.8464 80.8594 42.1328L82.3828 42.9531C82.6432 43.0833 82.8776 43.2266 83.0859 43.3828C83.3203 43.5391 83.5547 43.6823 83.7891 43.8125C84.2578 44.0208 84.7526 44.151 85.2734 44.2031C85.8203 44.2812 86.3151 44.4245 86.7578 44.6328C86.888 44.7109 86.9792 44.8021 87.0312 44.9062C87.0833 45.0365 87.1745 45.1406 87.3047 45.2188C87.513 45.349 87.8385 45.4401 88.2812 45.4922C88.724 45.5443 89.0885 45.6354 89.375 45.7656C89.7396 45.9219 90.0911 46.0651 90.4297 46.1953C90.7943 46.3516 91.1589 46.5339 91.5234 46.7422C92.3047 46.7943 93.0729 46.8854 93.8281 47.0156C94.6094 47.1458 95.3776 47.276 96.1328 47.4062C96.888 47.5365 97.6432 47.6536 98.3984 47.7578C99.1797 47.862 99.9609 47.901 100.742 47.875C100.742 47.9271 100.768 47.9531 100.82 47.9531C100.898 47.9792 100.964 47.9922 101.016 47.9922C101.198 48.2786 101.354 48.5651 101.484 48.8516C101.615 49.138 101.68 49.4375 101.68 49.75Z" fill="black"/>
</svg>
